<svg height="512.001pt" viewBox="0 0 512.001 512.001" width="512.001pt" xmlns="http://www.w3.org/2000/svg"><g fill-rule="evenodd" fill="#dcdcdc"><path d="m498.4375 432.726562-104.539062-104.535156c53.601562-84.058594 41.867187-194.496094-29.265626-265.628906-40.34375-40.34375-93.980468-62.5625-151.035156-62.5625-57.054687 0-110.691406 22.21875-151.035156 62.5625s-62.5625 93.980469-62.5625 151.035156c0 57.050782 22.21875 110.691406 62.5625 151.035156 40.339844 40.339844 93.976562 62.558594 151.027344 62.558594 40.949218 0 80.390625-11.484375 114.601562-33.289062l104.535156 104.535156c8.746094 8.746094 20.414063 13.5625 32.855469 13.5625 12.4375 0 24.105469-4.816406 32.855469-13.566406 8.746094-8.746094 13.5625-20.414063 13.5625-32.851563 0-12.441406-4.816406-24.109375-13.5625-32.855469zm-14.109375 51.601563c-4.976563 4.980469-11.636719 7.722656-18.746094 7.722656-7.113281 0-13.769531-2.742187-18.75-7.722656l-110.308593-110.308594c-1.929688-1.929687-4.484376-2.921875-7.054688-2.921875-1.976562 0-3.960938.582032-5.683594 1.777344-32.414062 22.480469-70.519531 34.367188-110.195312 34.367188-51.722656 0-100.347656-20.144532-136.921875-56.71875-75.5-75.5-75.5-198.355469 0-273.855469 36.574219-36.574219 85.203125-56.71875 136.929687-56.71875 51.722656 0 100.351563 20.144531 136.929688 56.71875 66.285156 66.285156 75.6875 170.214843 22.347656 247.117187-2.75 3.960938-2.265625 9.324219 1.144531 12.738282l110.308594 110.308593c4.980469 4.980469 7.722656 11.636719 7.722656 18.746094 0 7.113281-2.742187 13.769531-7.722656 18.75zm0 0"/><path d="m255.820312 63.007812c-5.308593-1.484374-10.808593 1.613282-12.292968 6.917969-1.484375 5.304688 1.609375 10.808594 6.914062 12.292969 58.625 16.40625 99.570313 70.429688 99.570313 131.378906 0 75.21875-61.195313 136.414063-136.414063 136.414063s-136.414062-61.195313-136.414062-136.414063c0-60.949218 40.945312-114.972656 99.566406-131.378906 5.304688-1.484375 8.402344-6.988281 6.917969-12.292969-1.484375-5.304687-6.992188-8.398437-12.292969-6.917969-32.214844 9.015626-61.25 28.65625-81.757812 55.300782-21.1875 27.523437-32.382813 60.472656-32.382813 95.289062 0 86.21875 70.144531 156.363282 156.363281 156.363282s156.367188-70.144532 156.367188-156.363282c0-34.816406-11.199219-67.765625-32.386719-95.289062-20.507813-26.644532-49.546875-46.285156-81.757813-55.300782zm0 0"/><path d="m213.597656 213.597656c-3.101562 0-6.027344 1.441406-7.914062 3.902344l-32.046875 41.78125-36.515625-95.203125c-1.972656-5.140625-7.742188-7.710937-12.882813-5.738281-5.144531 1.972656-7.714843 7.738281-5.742187 12.882812l42.894531 111.84375c1.292969 3.371094 4.304687 5.78125 7.878906 6.300782 3.578125.511718 7.152344-.941407 9.347657-3.804688l34.980468-45.601562 34.976563 45.601562c1.902343 2.484375 4.839843 3.90625 7.914062 3.90625.476563 0 .953125-.035156 1.433594-.101562 3.574219-.519532 6.589844-2.929688 7.882813-6.300782l42.894531-111.84375c1.972656-5.144531-.601563-10.910156-5.742188-12.882812-5.144531-1.972656-10.914062.597656-12.886719 5.738281l-36.511718 95.203125-32.046875-41.78125c-1.886719-2.460938-4.8125-3.902344-7.914063-3.902344zm0 0"/><path d="m213.597656 77.183594c5.492188 0 9.976563-4.480469 9.976563-9.976563 0-5.492187-4.484375-9.976562-9.976563-9.976562-5.496094 0-9.976562 4.484375-9.976562 9.976562 0 5.496094 4.480468 9.976563 9.976562 9.976563zm0 0"/></g></svg>
