<svg height="512" viewBox="0 0 60 60" width="512" xmlns="http://www.w3.org/2000/svg" fill="#dcdcdc"><g id="Page-1" fill="none" fill-rule="evenodd"><g id="055---Coffee-and-Paper" fill="#dcdcdc" fill-rule="nonzero"><path id="Shape" d="m28.581 30c-1.424438.0005507-2.5793451 1.1545628-2.581 2.579v3.16.45c0 .271.018.541.034.81h-4.842c-.9443378-.0012653-1.8407357.4158087-2.448 1.139-.6001305.70838-.8563687 1.6458456-.7 2.561.577 3.557 3.128 7.71 8.417 7.71 2.7309443-.0471817 5.1643984 1.7161554 5.97 4.326.02.085.038.178.058.264h-6.089c-.6485113.0035538-1.2683181.2678942-1.7197833.7334677-.4514653.4655735-.6966141 1.0932185-.6802167 1.7415323-.0006823.7276419.3307061 1.415825.9 1.869l2.666 2.131c.425736.3406285.9547671.5261421 1.5.526h25.234c.4722119.0012057.9341184-.1380276 1.327-.4l3.316-2.209c.8748064-.5888147 1.2627875-1.6796769.9562579-2.688651s-1.2357524-1.6996655-2.2902579-1.702349h-6.094c.6116183-3.0730664 1.8615758-5.9835017 3.669-8.543 1.8088818-2.3781473 2.7970527-5.2791448 2.816-8.267v-.45-3.16c-.0010998-1.4232681-1.1537342-2.5772443-2.577-2.58zm-2.119 16.41c-5.2 0-6.279-5.023-6.444-6.042-.0605323-.3366789.0338732-.6827101.257-.942.2274018-.2709166.563296-.4269591.917-.426h5.123c.4365149 1.9793111 1.2920501 3.8421204 2.509 5.463.6992093.9476679 1.3021915 1.962688 1.8 3.03-1.2657009-.7262582-2.7028381-1.1002177-4.162-1.083zm31.538 8.99c.0001575.1317112-.0655095.25479-.175.328l-3.315 2.208c-.0623052.041262-.1352722.0634995-.21.064h-25.238c-.0892417.0000385-.1757687-.0306874-.245-.087l-2.667-2.132c-.1105096-.0969741-.1665409-.2419084-.15-.388.0002552-.1053697.0427062-.2062468.1178688-.2800941s.1767734-.1145108.2821312-.1129059h31.209c.1050221.0007875.2053834.0434725.2787976.1185766s.1138047.1764105.1122024.2814234zm-2-22.821v2.421h-3.734c-.5522847 0-1 .4477153-1 1s.4477153 1 1 1h3.7c-.1800073 2.2710268-1.0073618 4.4428325-2.384 6.258-2.0585668 2.9121344-3.4617538 6.2357053-4.113 9.742h-14.933c-.6515885-3.5041744-2.0544134-6.825649-4.112-9.736-1.3783451-1.8168397-2.2070679-3.9906753-2.388-6.264h19.492c.5522847 0 1-.4477153 1-1s-.4477153-1-1-1h-19.528v-2.421c.0048537-.3185177.2624675-.5752447.581-.579h26.842c.3169705.0058944.5722024.262011.577.579z"/><path id="Shape" d="m11.98 38.213c0-.072.02-.14.02-.213v-35c0-.55228475.4477153-1 1-1h39c.5522847 0 1 .44771525 1 1v24c0 .5522847.4477153 1 1 1s1-.4477153 1-1v-24c0-1.65685425-1.3431458-3-3-3h-39c-1.6568542 0-3 1.34314575-3 3v13h-7c-1.65685425 0-3 1.3431458-3 3v19c-.00000556 3.3094175 2.67958808 5.9939327 5.989 6h.011 9c.5522847 0 1-.4477153 1-1s-.4477153-1-1-1h-4.532c.8552062-.9642703 1.3751441-2.1795636 1.482-3.464.013-.107.023-.214.03-.323zm-9.98-.213v-19c0-.5522847.44771525-1 1-1h7.0000793l-.0000793 19.782c.0094244 1.552905-.82188642 2.9894316-2.173 3.755l-.029.016c-.16470221.0846558-.33551324.1568577-.511.216-.1.035-.2.069-.31.1s-.239.053-.362.073c-.13819044.0211208-.27737331.0351392-.417.042-1.05957613.060048-2.09903303-.3069675-2.886-1.019-.8354171-.7594327-1.31178991-1.8359917-1.312-2.965z"/><path id="Shape" d="m16 14h12c.5522847 0 1-.4477153 1-1v-7c0-.55228475-.4477153-1-1-1h-12c-.5522847 0-1 .44771525-1 1v7c0 .5522847.4477153 1 1 1zm1-7h10v5h-10z"/><path id="Shape" d="m30 17h-14c-.5522847 0-1 .4477153-1 1s.4477153 1 1 1h14c.5522847 0 1-.4477153 1-1s-.4477153-1-1-1z"/><path id="Shape" d="m30 21h-14c-.5522847 0-1 .4477153-1 1s.4477153 1 1 1h14c.5522847 0 1-.4477153 1-1s-.4477153-1-1-1z"/><path id="Shape" d="m30 25h-14c-.5522847 0-1 .4477153-1 1s.4477153 1 1 1h14c.5522847 0 1-.4477153 1-1s-.4477153-1-1-1z"/><path id="Shape" d="m49 5h-14c-.5522847 0-1 .44771525-1 1s.4477153 1 1 1h14c.5522847 0 1-.44771525 1-1s-.4477153-1-1-1z"/><path id="Shape" d="m50 10c0-.55228475-.4477153-1-1-1h-14c-.5522847 0-1 .44771525-1 1 0 .5522847.4477153 1 1 1h14c.5522847 0 1-.4477153 1-1z"/><path id="Shape" d="m39.676 18.568c.8159492-.6041399 1.3051142-1.552913 1.324-2.568 0-.5522847-.4477153-1-1-1s-1 .4477153-1 1c0 .457-.2.653-.675 1.094-.8309032.5922319-1.3242151 1.5496379-1.3242151 2.57s.4933119 1.9777681 1.3242151 2.57c.481.441.676.638.676 1.1s-.2.657-.676 1.1c-.8152993.6039116-1.3046549 1.5515996-1.325 2.566 0 .5522847.4477153 1 1 1s1-.4477153 1-1c0-.459.2-.656.676-1.1.8309216-.5928895 1.3241516-1.5507411 1.3241516-2.5715s-.49323-1.9786105-1.3241516-2.5715c-.481-.441-.676-.638-.676-1.1s.2-.648.676-1.089z"/><path id="Shape" d="m45.676 18.568c.8159492-.6041399 1.3051142-1.552913 1.324-2.568 0-.5522847-.4477153-1-1-1s-1 .4477153-1 1c0 .457-.2.653-.675 1.094-.8309032.5922319-1.3242151 1.5496379-1.3242151 2.57s.4933119 1.9777681 1.3242151 2.57c.481.441.676.638.676 1.1s-.2.657-.676 1.1c-.8152993.6039116-1.3046549 1.5515996-1.325 2.566 0 .5522847.4477153 1 1 1s1-.4477153 1-1c0-.459.2-.656.676-1.1.8309216-.5928895 1.3241516-1.5507411 1.3241516-2.5715s-.49323-1.9786105-1.3241516-2.5715c-.481-.441-.676-.638-.676-1.1s.2-.648.676-1.089z"/></g></g></svg>
