<svg id="Capa_1" enable-background="new 0 0 512 512" height="512" viewBox="0 0 512 512" width="512" xmlns="http://www.w3.org/2000/svg" fill="#dcdcdc"><g><path d="m80.333 160.667c44.296 0 80.334-36.038 80.334-80.334s-36.038-80.333-80.334-80.333-80.333 36.037-80.333 80.333 36.037 80.334 80.333 80.334zm0-145.667c36.025 0 65.334 29.309 65.334 65.333 0 36.025-29.309 65.334-65.334 65.334-36.024 0-65.333-29.309-65.333-65.334 0-36.024 29.309-65.333 65.333-65.333z"/><path d="m80.333 351.333c-44.296 0-80.333 36.038-80.333 80.334s36.037 80.333 80.333 80.333 80.334-36.037 80.334-80.333-36.038-80.334-80.334-80.334zm0 145.667c-36.024 0-65.333-29.309-65.333-65.333 0-36.025 29.309-65.334 65.333-65.334 36.025 0 65.334 29.309 65.334 65.334 0 36.024-29.309 65.333-65.334 65.333z"/><path d="m431.667 175.667c-44.296 0-80.334 36.037-80.334 80.333s36.038 80.333 80.334 80.333 80.333-36.037 80.333-80.333-36.037-80.333-80.333-80.333zm0 145.666c-36.025 0-65.334-29.309-65.334-65.333s29.309-65.333 65.334-65.333c36.024 0 65.333 29.309 65.333 65.333s-29.309 65.333-65.333 65.333z"/><path d="m288.167 57.833h156.333c4.143 0 7.5-3.357 7.5-7.5s-3.357-7.5-7.5-7.5h-156.333c-4.143 0-7.5 3.357-7.5 7.5s3.357 7.5 7.5 7.5z"/><path d="m288.167 87.833h156.333c4.143 0 7.5-3.357 7.5-7.5s-3.357-7.5-7.5-7.5h-156.333c-4.143 0-7.5 3.357-7.5 7.5s3.357 7.5 7.5 7.5z"/><path d="m288.167 117.833h156.333c4.143 0 7.5-3.357 7.5-7.5s-3.357-7.5-7.5-7.5h-156.333c-4.143 0-7.5 3.357-7.5 7.5s3.357 7.5 7.5 7.5z"/><path d="m504.5 0h-276.333c-4.143 0-7.5 3.357-7.5 7.5v45.697l-40.854 20.428c-2.54 1.271-4.146 3.867-4.146 6.708s1.605 5.438 4.146 6.708l40.854 20.428v45.698c0 4.143 3.357 7.5 7.5 7.5h276.333c4.143 0 7.5-3.357 7.5-7.5v-145.667c0-4.143-3.357-7.5-7.5-7.5zm-7.5 145.667h-261.333v-42.834c0-2.841-1.605-5.438-4.146-6.708l-31.584-15.792 31.584-15.792c2.54-1.271 4.146-3.867 4.146-6.708v-42.833h261.333z"/><path d="m223.833 278.5h-156.333c-4.143 0-7.5 3.357-7.5 7.5s3.357 7.5 7.5 7.5h156.333c4.143 0 7.5-3.357 7.5-7.5s-3.357-7.5-7.5-7.5z"/><path d="m223.833 248.5h-156.333c-4.143 0-7.5 3.357-7.5 7.5s3.357 7.5 7.5 7.5h156.333c4.143 0 7.5-3.357 7.5-7.5s-3.357-7.5-7.5-7.5z"/><path d="m223.833 218.5h-156.333c-4.143 0-7.5 3.357-7.5 7.5s3.357 7.5 7.5 7.5h156.333c4.143 0 7.5-3.357 7.5-7.5s-3.357-7.5-7.5-7.5z"/><path d="m7.5 336.333h276.333c4.143 0 7.5-3.357 7.5-7.5v-45.698l40.854-20.427c2.54-1.271 4.146-3.867 4.146-6.708s-1.605-5.438-4.146-6.708l-40.854-20.427v-45.698c0-4.143-3.357-7.5-7.5-7.5h-276.333c-4.143 0-7.5 3.357-7.5 7.5v145.666c0 4.143 3.357 7.5 7.5 7.5zm7.5-145.666h261.333v42.833c0 2.841 1.605 5.438 4.146 6.708l31.584 15.792-31.584 15.792c-2.54 1.271-4.146 3.867-4.146 6.708v42.833h-261.333z"/><path d="m444.5 394.167h-156.333c-4.143 0-7.5 3.357-7.5 7.5s3.357 7.5 7.5 7.5h156.333c4.143 0 7.5-3.357 7.5-7.5s-3.357-7.5-7.5-7.5z"/><path d="m444.5 424.167h-156.333c-4.143 0-7.5 3.357-7.5 7.5s3.357 7.5 7.5 7.5h156.333c4.143 0 7.5-3.357 7.5-7.5s-3.357-7.5-7.5-7.5z"/><path d="m444.5 454.167h-156.333c-4.143 0-7.5 3.357-7.5 7.5s3.357 7.5 7.5 7.5h156.333c4.143 0 7.5-3.357 7.5-7.5s-3.357-7.5-7.5-7.5z"/><path d="m504.5 351.333h-276.333c-4.143 0-7.5 3.357-7.5 7.5v45.698l-40.854 20.428c-2.54 1.271-4.146 3.867-4.146 6.708s1.605 5.438 4.146 6.708l40.854 20.428v45.697c0 4.143 3.357 7.5 7.5 7.5h276.333c4.143 0 7.5-3.357 7.5-7.5v-57.833c0-4.143-3.357-7.5-7.5-7.5s-7.5 3.357-7.5 7.5v50.333h-261.333v-42.833c0-2.841-1.605-5.438-4.146-6.708l-31.584-15.792 31.584-15.792c2.54-1.271 4.146-3.867 4.146-6.708v-42.834h261.333v50.334c0 4.143 3.357 7.5 7.5 7.5s7.5-3.357 7.5-7.5v-57.834c0-4.143-3.357-7.5-7.5-7.5z"/></g></svg>
