<?xml version="1.0" encoding="utf-8"?>

<svg version="1.1" id="Layer_1" xmlns="http://www.w3.org/2000/svg" x="0px" y="0px"
	 viewBox="0 0 500 500" fill="#dcdcdc">

<g id="XMLID_1_">
	<path id="XMLID_7_" class="st0" d="M399.3,424.2h-59.1l4.1-49.8h-29l-4.1,49.8H188.8l-4.1-49.8h-29l4.1,49.8h-59.1L67.5,208.5
		l83-132.7h199.1l83,132.7L399.3,424.2z M333,142.2h-53.3l3.6,24.9h-66.4l3.6-24.9H167l-33.2,66.4l16.6,132.7h199.1l16.6-132.7
		L333,142.2z M303.9,297.2c-4.6,0-8.3-13.8-8.3-30.9c0-17,3.7-30.9,8.3-30.9c4.6,0,8.3,13.8,8.3,30.9
		C312.2,283.4,308.5,297.2,303.9,297.2z M199.2,299.8c-4.6,0-8.3-13.8-8.3-30.9s3.7-30.9,8.3-30.9c4.6,0,8.3,13.8,8.3,30.9
		S203.8,299.8,199.2,299.8z"/>
</g>
</svg>
