<svg id="Capa_1" enable-background="new 0 0 512 512" height="512" viewBox="0 0 512 512" width="512" xmlns="http://www.w3.org/2000/svg" fill="#dcdcdc"><path d="m462.224 97.201c-22.702-29.792-52.822-54.818-87.104-72.373-30.018-15.372-61.514-24.166-88.685-24.763-82.525-1.818-114.599 34.929-122.38 46.027-48.367 10.7-95.752 31.717-127.016 56.383-26.544 20.942-39.244 42.248-36.726 61.611 1.906 14.654 16.759 35.569 76.7 51.988 4.057 1.111 8.343-1.444 9.303-5.535.911-3.882-1.487-7.907-5.332-8.96-38.785-10.624-63.985-25.733-65.766-39.43-1.747-13.438 9.6-30.887 31.132-47.874 29.169-23.014 73.47-42.735 119.064-53.086 20.742 30.263 46.234 86.944 12.132 154.146-21.902-.497-45.372-2.952-67.83-7.18-4.026-.761-8.018 1.969-8.776 5.994-.757 4.024 1.97 8.018 5.995 8.775 30.269 5.699 62.374 8.306 90.403 7.348 19.42-.67 37.426.145 53.552 2.323 6.157 18.029 15.921 47.683 21.838 71.029 3.904 15.405 13.592 17.171 17.814 17.171.074 0 .146 0 .216-.001 14.178-.205 30.343-19.135 39.763-44.736 1.613 4.381 2.504 9.034 2.638 13.951 1.213 44.667-24.812 69.888-50.746 75.411-4.328-4.069-13.064-11.355-25.151-16.876-16.22-7.41-41.731-12.979-71.151 2.577-6.533 3.454-10.173 10.427-9.272 17.761.906 7.385 6.163 13.31 13.391 15.095 18.148 4.481 40.927 15.636 46.387 43.324 5.324 26.998-1.626 46.523-8.394 58.148-3.494 6.001-3.079 13.579.972 19.203 3.803 5.279 10.296 8.077 16.747 7.182 16.187-2.24 30.111-8.302 41.387-18.019 14.495-12.49 23.924-30.564 28.06-53.768 8.337-3.517 28.578-12.602 51.934-27.032 3.483-2.152 4.597-6.86 2.443-10.344-2.153-3.483-6.86-4.595-10.343-2.443-28.787 17.785-53.25 27.357-53.492 27.449-2.525.979-4.328 3.239-4.721 5.917-3.786 25.805-16.806 57.742-57.331 63.352-2.106.282-3.759-2.065-2.669-3.936 8.07-13.861 16.382-37.018 10.151-68.617-6.99-35.448-35.142-49.479-57.529-55.008-2.337-.576-2.905-3.813-.698-4.979 45.738-24.185 79.718 12.542 81.129 14.102 1.675 1.874 4.177 2.788 6.664 2.43 18.495-2.641 35.435-12.529 47.699-27.846 13.464-16.815 20.227-38.772 19.555-63.494-.442-16.27-6.885-30.369-19.151-41.904-24.461-23.004-71.414-34.53-132.209-32.446-.854.029-1.724.045-2.586.067 7.985-17.434 12.795-35.134 14.404-52.979 22.886 11.024 37.119 14.669 46.23 14.669 8.473 0 12.519-3.153 14.973-6.455 12.068-16.237 12.193-38.442 12.18-40.332.012-1.89-.113-24.094-12.18-40.331-7.927-10.665-25.674-5.943-38.333-1.467-10.141 3.588-20.846 8.574-29.713 13.068-5.477-17.337-13.21-32.092-20.504-43.525 37.232-6.668 87.146-9.355 133.622 8.355 5.184 1.977 10.311 4.101 15.238 6.314 3.787 1.703 8.234.011 9.935-3.775s.011-8.233-3.775-9.934c-5.192-2.333-10.59-4.57-16.045-6.65-45.258-17.246-93.15-16.447-130.987-10.846 2.541-2.045 5.464-4.166 8.817-6.273 27.96-17.57 63.291-20.611 88.004-20.068 46.364 1.019 117.512 29.998 164.165 91.22 31.81 41.744 63.883 114.727 36.038 225.361-.518 2.06-3.199 2.684-4.611 1.116l-19.345-21.455c2.476-6.636 4.363-13.35 5.64-20.139 7.858-41.765 2.8-83.799-14.626-121.562-18.06-39.134-49.04-72.504-89.593-96.504-3.571-2.116-8.181-.931-10.294 2.639-2.114 3.573-.933 8.181 2.64 10.295 37.916 22.441 66.824 53.516 83.6 89.868 16.11 34.91 20.779 73.807 13.503 112.486-6.319 33.587-29.683 65.652-69.442 95.305-2.988 2.228-3.884 6.447-2.062 9.697 2.185 3.898 7.46 5.026 11.048 2.35 29.173-21.757 50.205-44.999 62.892-69.415l14.877 16.5c4.658 5.166 12.086 7.134 18.697 4.973 5.723-1.87 10.182-6.646 11.651-12.486 29.31-116.43-4.843-193.763-38.655-238.134zm-142.344 162.568c-7.249 28.052-23.021 45.906-29.338 45.997-.003 0-.006 0-.009 0-1.018 0-2.376-2.448-3.234-5.834-5.122-20.212-12.86-44.522-19.547-64.413 22.271 4.792 39.821 12.629 50.985 23.127.392.37.766.747 1.143 1.123zm-62.039-160.833c9.209 12.47 9.156 31.017 9.154 31.187v.196c.003.185-.015 18.812-9.154 31.189-2.245 1.468-15.107 1.276-48.619-15.647-.179-8.969-1.157-17.964-2.943-26.972-.169-.852-.367-1.681-.549-2.524 35.741-18.549 49.843-18.905 52.111-17.429z"/><circle cx="99.073" cy="130.236" r="13.072"/></svg>
