<?xml version="1.0" encoding="iso-8859-1"?>
<!-- Generator: Adobe Illustrator 19.0.0, SVG Export Plug-In . SVG Version: 6.00 Build 0)  -->
<svg version="1.1" id="Capa_1" xmlns="http://www.w3.org/2000/svg" xmlns:xlink="http://www.w3.org/1999/xlink" x="0px" y="0px"
	 viewBox="0 0 512 512" style="enable-background:new 0 0 512 512;" xml:space="preserve" fill="#40a4c8">
<g>
	<g>
		<g>
			<path d="M448,140.8V0h-64v32h32v128h-84.256L240,212.432V160h-48V32h96V0H160v76.8L0,183.44V512h512V183.44L448,140.8z
				 M160,115.2V192h48v75.568L340.256,192H448v-12.8l31.168,20.8L256,348.8L32.848,200L160,115.2z M32,237.888L157.504,321.6
				L32,455.52V237.888z M52.912,480L184.48,339.552L256,387.2l71.52-47.68L459.088,480H52.912z M480,455.52L354.496,321.6
				L480,237.888V455.52z"/>
			<rect x="352" y="80" width="32" height="32"/>
			<rect x="224" y="80" width="32" height="32"/>
			<rect x="288" y="80" width="32" height="32"/>
			<rect x="320" width="32" height="32"/>
		</g>
	</g>
</g>
<g>
</g>
<g>
</g>
<g>
</g>
<g>
</g>
<g>
</g>
<g>
</g>
<g>
</g>
<g>
</g>
<g>
</g>
<g>
</g>
<g>
</g>
<g>
</g>
<g>
</g>
<g>
</g>
<g>
</g>
</svg>
