<?xml version="1.0"?>
<svg xmlns="http://www.w3.org/2000/svg" viewBox="0 0 512 512" width="512" height="512" fill="#dcdcdc"><g id="outline"><path d="M86.055,439.954Q87.021,440,88,440H288a40,40,0,0,0,0-80H271.333A48,48,0,0,0,198.5,327.339a55.978,55.978,0,0,0-60.294-10.921A71.986,71.986,0,1,0,86.055,439.954ZM88,312a55.977,55.977,0,0,1,42.378,19.42,8,8,0,0,0,9.988,1.735,39.972,39.972,0,0,1,50.885,9.893,8,8,0,0,0,11.551.991A31.991,31.991,0,0,1,256,368a8,8,0,0,0,8,8h24a24,24,0,0,1,0,48H88q-.627,0-1.245-.031c-.067,0-.133-.006-.2-.007A55.99,55.99,0,0,1,88,312Z"/><path d="M464,296H453.264a48.056,48.056,0,0,0-59.9-29.727,56.3,56.3,0,0,0-32.41-17.541,8,8,0,0,0-3.96-7.661l-20.785-12a8,8,0,0,0-8,13.858l11.262,6.5A56.064,56.064,0,0,0,309.15,268l-2.2-3.806A8,8,0,0,0,293.1,272.2l6.693,11.584A55.969,55.969,0,0,0,352,360H464a32,32,0,0,0,0-64Zm0,48H352a40,40,0,1,1,32.393-63.453,8,8,0,0,0,9.906,2.529A31.71,31.71,0,0,1,408,280a32.08,32.08,0,0,1,31.358,25.592A8,8,0,0,0,447.2,312H464a16,16,0,0,1,0,32Z"/><path d="M88,408h8a8,8,0,0,0,0-16H88a8,8,0,0,0,0,16Z"/><path d="M128,408h40a8,8,0,0,0,0-16H128a8,8,0,0,0,0,16Z"/><path d="M352,312h-8a8,8,0,0,0,0,16h8a8,8,0,0,0,0-16Z"/><path d="M408,312H384a8,8,0,0,0,0,16h24a8,8,0,0,0,0-16Z"/><path d="M320,192a64,64,0,1,0-64,64A64.072,64.072,0,0,0,320,192Zm-64,48a48,48,0,1,1,48-48A48.055,48.055,0,0,1,256,240Z"/><path d="M266.343,194.343a14.644,14.644,0,0,1-20.686,0,8,8,0,0,0-11.314,11.314,30.663,30.663,0,0,0,43.314,0,8,8,0,0,0-11.314-11.314Z"/><circle cx="240" cy="176" r="8"/><circle cx="272" cy="176" r="8"/><path d="M211.983,123.805a8,8,0,0,0,6.919-12l-8-13.854a8,8,0,1,0-13.853,8.006l8,13.854A8,8,0,0,0,211.983,123.805Z"/><path d="M168,200.028a8,8,0,0,0,0-16h0l-16,0a8,8,0,0,0,0,16h0Z"/><path d="M205.1,264.227l-8,13.858a8,8,0,1,0,13.859,8l8-13.858a8,8,0,1,0-13.859-8Z"/><path d="M344,199.972h0l16,0a8,8,0,0,0,0-16h0l-16,0a8,8,0,0,0,0,16Z"/><path d="M299.968,123.776a8,8,0,0,0,6.937-4l8-13.858a8,8,0,1,0-13.859-8l-8,13.858a8,8,0,0,0,6.922,12Z"/><path d="M264,104V80a8,8,0,0,0-16,0v24a8,8,0,0,0,16,0Z"/><path d="M183.79,141.071l-20.785-12a8,8,0,1,0-8,13.858l20.785,12a8,8,0,0,0,8-13.858Z"/><path d="M159.013,256a7.978,7.978,0,0,0,3.992-1.072l20.785-12a8,8,0,0,0-8-13.858l-20.785,12A8,8,0,0,0,159.013,256Z"/><path d="M248,280v24a8,8,0,0,0,16,0V280a8,8,0,0,0-16,0Z"/><path d="M359.924,132A8,8,0,0,0,349,129.071l-20.785,12a8,8,0,1,0,8,13.858l20.785-12A8,8,0,0,0,359.924,132Z"/></g></svg>
